<svg xmlns="http://www.w3.org/2000/svg" viewBox="0 0 1440 74" fill="none">
        <path fill-rule="evenodd" clip-rule="evenodd" d="M0 16.7015H18C37.2 16.7015 74.4 16.7015 110.4 23.6604C147.6 30.6194 184.8 44.5373 222 50.1045C258 55.6716 295.2 52.888 332.4 48.7127C369.6 44.5373 405.6 38.9701 442.8 43.1455C480 47.3209 517.2 61.2388 554.4 55.6716C590.4 50.1045 627.6 25.0522 664.8 23.6604C702 22.2687 738 44.5373 775.2 48.7127C812.4 52.888 849.6 38.9701 885.6 29.2276C922.8 19.4851 960 13.9179 997.2 11.1343C1034.4 8.35074 1070.4 8.35074 1107.6 9.74253C1144.8 11.1343 1182 13.9179 1218 26.444C1255.2 38.9701 1292.4 61.2388 1329.6 69.5895C1365.6 77.9403 1402.8 72.3731 1422 69.5895L1440 66.8059V0H1422C1402.8 0 1365.6 0 1329.6 0C1292.4 0 1255.2 0 1218 0C1182 0 1144.8 0 1107.6 0C1070.4 0 1034.4 0 997.2 0C960 0 922.8 0 885.6 0C849.6 0 812.4 0 775.2 0C738 0 702 0 664.8 0C627.6 0 590.4 0 554.4 0C517.2 0 480 0 442.8 0C405.6 0 369.6 0 332.4 0C295.2 0 258 0 222 0C184.8 0 147.6 0 110.4 0C74.4 0 37.2 0 18 0H0V16.7015Z" fill="#FFEC9A"/>
      </svg>